# xmcd CD database file
#
# Track frame offsets:
#	150
#	10044
#	28823
#	40904
#	51602
#	67627
#	78349
#	92079
#	106744
#	117676
#	131645
#	143758
#	157334
#	170222
#	180579
#
# Disc length: 2616 seconds
#
# Revision: 0
# Processed by: cddbd v1.4PL0 Copyright (c) Steve Scherf et al.
# Submitted via: CDex 1.40Release
#
DISCID=cf0a360f
DTITLE=Johnny Bush - Green Snakes
DYEAR=2001
DGENRE=Country
TTITLE0=Green Snakes (On The Ceiling)
TTITLE1=When Did You Stop Lovin' Me
TTITLE2=I Wish That I Could Fall In Love Today
TTITLE3=Driving Nails (In My Coffin)
TTITLE4=Rainbow In Daddy's Eyes
TTITLE5=Dos Tacos
TTITLE6=The Next Voice You Hear
TTITLE7=He Dont' Deserve You Anymore
TTITLE8=Glory Train (Holy Train)
TTITLE9=Cheatin' Fire
TTITLE10=Nobody's Business (But My Own)
TTITLE11=The Truth About You
TTITLE12=You Don't Have To Be A Baby To Cry
TTITLE13=Moon Mullican Story
TTITLE14=The Pipeliner Blues
EXTD=YEAR: 2001 ID3G: 2
EXTT0=
EXTT1=
EXTT2=
EXTT3=
EXTT4=
EXTT5=
EXTT6=
EXTT7=
EXTT8=
EXTT9=
EXTT10=
EXTT11=
EXTT12=
EXTT13=
EXTT14=
PLAYORDER=
